<mxfile host="app.diagrams.net" agent="Mozilla/5.0 (Windows NT 10.0; Win64; x64) AppleWebKit/537.36 (KHTML, like Gecko) Chrome/141.0.0.0 Safari/537.36 Edg/141.0.0.0" version="28.2.7">
  <diagram name="diagrama-clases" id="tmoNBz47ytBKy1adXkc0">
    <mxGraphModel dx="3047" dy="3093" grid="1" gridSize="10" guides="1" tooltips="1" connect="1" arrows="1" fold="1" page="1" pageScale="1" pageWidth="827" pageHeight="1169" math="0" shadow="0">
      <root>
        <mxCell id="0" />
        <mxCell id="1" parent="0" />
        <mxCell id="k55dvqI0mPFImyrSNptX-2" value="Usuario" style="swimlane;fontStyle=1;align=center;verticalAlign=top;childLayout=stackLayout;horizontal=1;startSize=26;horizontalStack=0;resizeParent=1;resizeParentMax=0;resizeLast=0;collapsible=1;marginBottom=0;whiteSpace=wrap;html=1;fillColor=#d5e8d4;strokeColor=#82b366;fontFamily=Tahoma;" parent="1" vertex="1">
          <mxGeometry x="498" y="-550" width="230" height="280" as="geometry" />
        </mxCell>
        <mxCell id="k55dvqI0mPFImyrSNptX-3" value="+ id: Long&lt;div&gt;+ userName: String&lt;/div&gt;&lt;div&gt;+ email: String&lt;/div&gt;&lt;div&gt;+ password: String&lt;br&gt;&lt;div&gt;+ nombres: String&lt;br&gt;&lt;div&gt;+ apellidos: String&lt;/div&gt;&lt;div&gt;+ telefono: String&lt;/div&gt;&lt;div&gt;+ estado: EstadoUsuario&lt;/div&gt;&lt;div&gt;+ fechaCreacion: String&lt;/div&gt;&lt;div&gt;&lt;div&gt;&lt;br&gt;&lt;/div&gt;&lt;div&gt;&lt;br&gt;&lt;/div&gt;&lt;/div&gt;&lt;/div&gt;&lt;/div&gt;" style="text;strokeColor=none;fillColor=none;align=left;verticalAlign=top;spacingLeft=4;spacingRight=4;overflow=hidden;rotatable=0;points=[[0,0.5],[1,0.5]];portConstraint=eastwest;whiteSpace=wrap;html=1;fontFamily=Tahoma;" parent="k55dvqI0mPFImyrSNptX-2" vertex="1">
          <mxGeometry y="26" width="230" height="144" as="geometry" />
        </mxCell>
        <mxCell id="k55dvqI0mPFImyrSNptX-4" value="" style="line;strokeWidth=1;fillColor=none;align=left;verticalAlign=middle;spacingTop=-1;spacingLeft=3;spacingRight=3;rotatable=0;labelPosition=right;points=[];portConstraint=eastwest;strokeColor=inherit;fontFamily=Tahoma;" parent="k55dvqI0mPFImyrSNptX-2" vertex="1">
          <mxGeometry y="170" width="230" height="8" as="geometry" />
        </mxCell>
        <mxCell id="k55dvqI0mPFImyrSNptX-5" value="+ autenticado(password: String): boolean&lt;div&gt;+ actualizarPerfil(datos: PerfilDTO): void&lt;/div&gt;&lt;div&gt;+ cambiarContraseña(newContraseña: String): void&lt;/div&gt;&lt;div&gt;+ isActivo(): boolean&lt;/div&gt;" style="text;strokeColor=none;fillColor=none;align=left;verticalAlign=top;spacingLeft=4;spacingRight=4;overflow=hidden;rotatable=0;points=[[0,0.5],[1,0.5]];portConstraint=eastwest;whiteSpace=wrap;html=1;fontFamily=Tahoma;" parent="k55dvqI0mPFImyrSNptX-2" vertex="1">
          <mxGeometry y="178" width="230" height="102" as="geometry" />
        </mxCell>
        <mxCell id="k55dvqI0mPFImyrSNptX-6" value="Bodega" style="swimlane;fontStyle=1;align=center;verticalAlign=top;childLayout=stackLayout;horizontal=1;startSize=26;horizontalStack=0;resizeParent=1;resizeParentMax=0;resizeLast=0;collapsible=1;marginBottom=0;whiteSpace=wrap;html=1;fillColor=#d5e8d4;strokeColor=#82b366;fontFamily=Tahoma;" parent="1" vertex="1">
          <mxGeometry x="838" y="-170" width="250" height="270" as="geometry" />
        </mxCell>
        <mxCell id="k55dvqI0mPFImyrSNptX-7" value="+ id: Long&lt;div&gt;+ nombre: String&lt;/div&gt;&lt;div&gt;+ direccion: String&lt;/div&gt;&lt;div&gt;+ telefono: String&lt;br&gt;&lt;div&gt;+ email: String&lt;br&gt;&lt;div&gt;+ nit: String&lt;/div&gt;&lt;div&gt;+ estado: EstadoBodega&lt;/div&gt;&lt;div&gt;&lt;div&gt;+ capacidadMaxima: double&lt;/div&gt;&lt;div&gt;&lt;br&gt;&lt;/div&gt;&lt;/div&gt;&lt;/div&gt;&lt;/div&gt;" style="text;strokeColor=none;fillColor=none;align=left;verticalAlign=top;spacingLeft=4;spacingRight=4;overflow=hidden;rotatable=0;points=[[0,0.5],[1,0.5]];portConstraint=eastwest;whiteSpace=wrap;html=1;fontFamily=Tahoma;" parent="k55dvqI0mPFImyrSNptX-6" vertex="1">
          <mxGeometry y="26" width="250" height="124" as="geometry" />
        </mxCell>
        <mxCell id="k55dvqI0mPFImyrSNptX-8" value="" style="line;strokeWidth=1;fillColor=none;align=left;verticalAlign=middle;spacingTop=-1;spacingLeft=3;spacingRight=3;rotatable=0;labelPosition=right;points=[];portConstraint=eastwest;strokeColor=inherit;fontFamily=Tahoma;" parent="k55dvqI0mPFImyrSNptX-6" vertex="1">
          <mxGeometry y="150" width="250" height="8" as="geometry" />
        </mxCell>
        <mxCell id="k55dvqI0mPFImyrSNptX-9" value="+ calcularCapacidadDisponible(): Double&lt;div&gt;+ validarCapacidad(cantidad: Double): boolean&lt;/div&gt;&lt;div&gt;+ actualizarInformacion(datos: BodegaDTO): void&lt;/div&gt;&lt;div&gt;+ isOperacional() boolean&lt;/div&gt;" style="text;strokeColor=none;fillColor=none;align=left;verticalAlign=top;spacingLeft=4;spacingRight=4;overflow=hidden;rotatable=0;points=[[0,0.5],[1,0.5]];portConstraint=eastwest;whiteSpace=wrap;html=1;fontFamily=Tahoma;" parent="k55dvqI0mPFImyrSNptX-6" vertex="1">
          <mxGeometry y="158" width="250" height="112" as="geometry" />
        </mxCell>
        <mxCell id="k55dvqI0mPFImyrSNptX-10" value="Proveedor" style="swimlane;fontStyle=1;align=center;verticalAlign=top;childLayout=stackLayout;horizontal=1;startSize=26;horizontalStack=0;resizeParent=1;resizeParentMax=0;resizeLast=0;collapsible=1;marginBottom=0;whiteSpace=wrap;html=1;fillColor=#d5e8d4;strokeColor=#82b366;fontFamily=Tahoma;" parent="1" vertex="1">
          <mxGeometry x="1722" y="20" width="260" height="300" as="geometry" />
        </mxCell>
        <mxCell id="k55dvqI0mPFImyrSNptX-11" value="+ id: Long&lt;div&gt;+ nombres: String&lt;/div&gt;&lt;div&gt;+ apellidod: String&lt;/div&gt;&lt;div&gt;+ tipoDocumento: TipoDocumento&lt;/div&gt;&lt;div&gt;+ numeroDocumento: String&lt;/div&gt;&lt;div&gt;+ email: String&lt;/div&gt;&lt;div&gt;+ telefono: String&lt;br&gt;&lt;div&gt;+ direccion: String&lt;div&gt;+ telefono: String&lt;/div&gt;&lt;div&gt;+ estado: EstadoUsuario&lt;/div&gt;&lt;div&gt;+ fechaRegistro: LocalDateTime&lt;/div&gt;&lt;div&gt;+ estado: EstadoProveedor&lt;/div&gt;&lt;div&gt;&lt;div&gt;&lt;br&gt;&lt;/div&gt;&lt;div&gt;&lt;br&gt;&lt;/div&gt;&lt;/div&gt;&lt;/div&gt;&lt;/div&gt;" style="text;strokeColor=none;fillColor=none;align=left;verticalAlign=top;spacingLeft=4;spacingRight=4;overflow=hidden;rotatable=0;points=[[0,0.5],[1,0.5]];portConstraint=eastwest;whiteSpace=wrap;html=1;fontFamily=Tahoma;" parent="k55dvqI0mPFImyrSNptX-10" vertex="1">
          <mxGeometry y="26" width="260" height="184" as="geometry" />
        </mxCell>
        <mxCell id="k55dvqI0mPFImyrSNptX-12" value="" style="line;strokeWidth=1;fillColor=none;align=left;verticalAlign=middle;spacingTop=-1;spacingLeft=3;spacingRight=3;rotatable=0;labelPosition=right;points=[];portConstraint=eastwest;strokeColor=inherit;fontFamily=Tahoma;" parent="k55dvqI0mPFImyrSNptX-10" vertex="1">
          <mxGeometry y="210" width="260" height="8" as="geometry" />
        </mxCell>
        <mxCell id="k55dvqI0mPFImyrSNptX-13" value="+ autenticado(password: String): boolean&lt;div&gt;+ actualizarPerfil(datos: PerfilDTO): void&lt;/div&gt;&lt;div&gt;+ cambiarContraseña(newContraseña: String): void&lt;/div&gt;&lt;div&gt;+ isActivo(): boolean&lt;/div&gt;" style="text;strokeColor=none;fillColor=none;align=left;verticalAlign=top;spacingLeft=4;spacingRight=4;overflow=hidden;rotatable=0;points=[[0,0.5],[1,0.5]];portConstraint=eastwest;whiteSpace=wrap;html=1;fontFamily=Tahoma;" parent="k55dvqI0mPFImyrSNptX-10" vertex="1">
          <mxGeometry y="218" width="260" height="82" as="geometry" />
        </mxCell>
        <mxCell id="k55dvqI0mPFImyrSNptX-18" value="TipoMaterial" style="swimlane;fontStyle=1;align=center;verticalAlign=top;childLayout=stackLayout;horizontal=1;startSize=26;horizontalStack=0;resizeParent=1;resizeParentMax=0;resizeLast=0;collapsible=1;marginBottom=0;whiteSpace=wrap;html=1;fillColor=#d5e8d4;strokeColor=#82b366;fontFamily=Tahoma;" parent="1" vertex="1">
          <mxGeometry x="1113" y="465" width="300" height="240" as="geometry" />
        </mxCell>
        <mxCell id="k55dvqI0mPFImyrSNptX-19" value="+ id: Long&lt;div&gt;+ nombre: String&lt;/div&gt;&lt;div&gt;+ descripcion: String&lt;/div&gt;&lt;div&gt;+ categoria: CategoriaMaterial&lt;/div&gt;&lt;div&gt;+ unidadMedida: UnidadMedida&lt;/div&gt;&lt;div&gt;+ precioBase: Double&lt;/div&gt;&lt;div&gt;+ estado: boolean&lt;/div&gt;&lt;div&gt;&lt;br&gt;&lt;/div&gt;&lt;div&gt;&lt;div&gt;&lt;div&gt;&lt;div&gt;&lt;br&gt;&lt;/div&gt;&lt;div&gt;&lt;br&gt;&lt;/div&gt;&lt;/div&gt;&lt;/div&gt;&lt;/div&gt;" style="text;strokeColor=none;fillColor=none;align=left;verticalAlign=top;spacingLeft=4;spacingRight=4;overflow=hidden;rotatable=0;points=[[0,0.5],[1,0.5]];portConstraint=eastwest;whiteSpace=wrap;html=1;fontFamily=Tahoma;" parent="k55dvqI0mPFImyrSNptX-18" vertex="1">
          <mxGeometry y="26" width="300" height="114" as="geometry" />
        </mxCell>
        <mxCell id="k55dvqI0mPFImyrSNptX-20" value="" style="line;strokeWidth=1;fillColor=none;align=left;verticalAlign=middle;spacingTop=-1;spacingLeft=3;spacingRight=3;rotatable=0;labelPosition=right;points=[];portConstraint=eastwest;strokeColor=inherit;fontFamily=Tahoma;" parent="k55dvqI0mPFImyrSNptX-18" vertex="1">
          <mxGeometry y="140" width="300" height="8" as="geometry" />
        </mxCell>
        <mxCell id="k55dvqI0mPFImyrSNptX-21" value="+ calcularPrecioConCalidad(calidad: CalidadMaterial): Double&lt;div&gt;+ actualizarPrecio(nuevoPrecio: double): void&lt;/div&gt;&lt;div&gt;+ cambiarContraseña(newContraseña: String): void&lt;/div&gt;&lt;div&gt;&lt;span style=&quot;background-color: transparent; color: light-dark(rgb(0, 0, 0), rgb(255, 255, 255));&quot;&gt;+ isActivo(): boolean&lt;/span&gt;&lt;/div&gt;" style="text;strokeColor=none;fillColor=none;align=left;verticalAlign=top;spacingLeft=4;spacingRight=4;overflow=hidden;rotatable=0;points=[[0,0.5],[1,0.5]];portConstraint=eastwest;whiteSpace=wrap;html=1;fontFamily=Tahoma;" parent="k55dvqI0mPFImyrSNptX-18" vertex="1">
          <mxGeometry y="148" width="300" height="92" as="geometry" />
        </mxCell>
        <mxCell id="VPmrhG5jTdDAsUOpuQk8-12" style="edgeStyle=orthogonalEdgeStyle;rounded=0;orthogonalLoop=1;jettySize=auto;html=1;entryX=1;entryY=0.5;entryDx=0;entryDy=0;strokeWidth=2;endArrow=none;endFill=0;" parent="1" source="k55dvqI0mPFImyrSNptX-22" target="k55dvqI0mPFImyrSNptX-29" edge="1">
          <mxGeometry relative="1" as="geometry" />
        </mxCell>
        <mxCell id="VPmrhG5jTdDAsUOpuQk8-13" value="1..*" style="edgeLabel;html=1;align=center;verticalAlign=middle;resizable=0;points=[];fontSize=15;" parent="VPmrhG5jTdDAsUOpuQk8-12" vertex="1" connectable="0">
          <mxGeometry x="0.7447" y="2" relative="1" as="geometry">
            <mxPoint as="offset" />
          </mxGeometry>
        </mxCell>
        <mxCell id="VPmrhG5jTdDAsUOpuQk8-14" value="1..*" style="edgeLabel;html=1;align=center;verticalAlign=middle;resizable=0;points=[];fontSize=15;" parent="VPmrhG5jTdDAsUOpuQk8-12" vertex="1" connectable="0">
          <mxGeometry x="-0.7988" relative="1" as="geometry">
            <mxPoint as="offset" />
          </mxGeometry>
        </mxCell>
        <mxCell id="k55dvqI0mPFImyrSNptX-22" value="Permiso" style="swimlane;fontStyle=1;align=center;verticalAlign=top;childLayout=stackLayout;horizontal=1;startSize=26;horizontalStack=0;resizeParent=1;resizeParentMax=0;resizeLast=0;collapsible=1;marginBottom=0;whiteSpace=wrap;html=1;fillColor=#d5e8d4;strokeColor=#82b366;fontFamily=Tahoma;" parent="1" vertex="1">
          <mxGeometry x="1193" y="-430" width="220" height="140" as="geometry" />
        </mxCell>
        <mxCell id="k55dvqI0mPFImyrSNptX-23" value="+ id: Long&lt;div&gt;+ nombre: String&lt;/div&gt;&lt;div&gt;+ descripcion: String&lt;/div&gt;&lt;div&gt;+ modulo: String&lt;br&gt;&lt;div&gt;&lt;br&gt;&lt;div&gt;&lt;div&gt;&lt;br&gt;&lt;/div&gt;&lt;/div&gt;&lt;/div&gt;&lt;/div&gt;" style="text;strokeColor=none;fillColor=none;align=left;verticalAlign=top;spacingLeft=4;spacingRight=4;overflow=hidden;rotatable=0;points=[[0,0.5],[1,0.5]];portConstraint=eastwest;whiteSpace=wrap;html=1;fontFamily=Tahoma;" parent="k55dvqI0mPFImyrSNptX-22" vertex="1">
          <mxGeometry y="26" width="220" height="74" as="geometry" />
        </mxCell>
        <mxCell id="k55dvqI0mPFImyrSNptX-24" value="" style="line;strokeWidth=1;fillColor=none;align=left;verticalAlign=middle;spacingTop=-1;spacingLeft=3;spacingRight=3;rotatable=0;labelPosition=right;points=[];portConstraint=eastwest;strokeColor=inherit;fontFamily=Tahoma;" parent="k55dvqI0mPFImyrSNptX-22" vertex="1">
          <mxGeometry y="100" width="220" height="8" as="geometry" />
        </mxCell>
        <mxCell id="k55dvqI0mPFImyrSNptX-25" value="&lt;div&gt;+ isValidoFor(modulo: String) boolean&lt;/div&gt;" style="text;strokeColor=none;fillColor=none;align=left;verticalAlign=top;spacingLeft=4;spacingRight=4;overflow=hidden;rotatable=0;points=[[0,0.5],[1,0.5]];portConstraint=eastwest;whiteSpace=wrap;html=1;fontFamily=Tahoma;" parent="k55dvqI0mPFImyrSNptX-22" vertex="1">
          <mxGeometry y="108" width="220" height="32" as="geometry" />
        </mxCell>
        <mxCell id="k55dvqI0mPFImyrSNptX-26" value="Rol" style="swimlane;fontStyle=1;align=center;verticalAlign=top;childLayout=stackLayout;horizontal=1;startSize=26;horizontalStack=0;resizeParent=1;resizeParentMax=0;resizeLast=0;collapsible=1;marginBottom=0;whiteSpace=wrap;html=1;fillColor=#d5e8d4;strokeColor=#82b366;fontFamily=Tahoma;" parent="1" vertex="1">
          <mxGeometry x="828" y="-445" width="240" height="170" as="geometry" />
        </mxCell>
        <mxCell id="k55dvqI0mPFImyrSNptX-27" value="+ id: Long&lt;div&gt;+ nombre: String&lt;/div&gt;&lt;div&gt;+ descripcion: String&lt;/div&gt;&lt;div&gt;+ permiso: List&amp;lt;Permiso&amp;gt;&lt;br&gt;&lt;div&gt;&lt;br&gt;&lt;div&gt;&lt;div&gt;&lt;br&gt;&lt;/div&gt;&lt;/div&gt;&lt;/div&gt;&lt;/div&gt;" style="text;strokeColor=none;fillColor=none;align=left;verticalAlign=top;spacingLeft=4;spacingRight=4;overflow=hidden;rotatable=0;points=[[0,0.5],[1,0.5]];portConstraint=eastwest;whiteSpace=wrap;html=1;fontFamily=Tahoma;" parent="k55dvqI0mPFImyrSNptX-26" vertex="1">
          <mxGeometry y="26" width="240" height="74" as="geometry" />
        </mxCell>
        <mxCell id="k55dvqI0mPFImyrSNptX-28" value="" style="line;strokeWidth=1;fillColor=none;align=left;verticalAlign=middle;spacingTop=-1;spacingLeft=3;spacingRight=3;rotatable=0;labelPosition=right;points=[];portConstraint=eastwest;strokeColor=inherit;fontFamily=Tahoma;" parent="k55dvqI0mPFImyrSNptX-26" vertex="1">
          <mxGeometry y="100" width="240" height="8" as="geometry" />
        </mxCell>
        <mxCell id="k55dvqI0mPFImyrSNptX-29" value="+ tienePermiso(permiso: String): boolean&lt;div&gt;+ añadirPermiso(permiso: Permiso): void&lt;/div&gt;&lt;div&gt;+ removerPermiso(permiso: Permiso): void&lt;/div&gt;" style="text;strokeColor=none;fillColor=none;align=left;verticalAlign=top;spacingLeft=4;spacingRight=4;overflow=hidden;rotatable=0;points=[[0,0.5],[1,0.5]];portConstraint=eastwest;whiteSpace=wrap;html=1;fontFamily=Tahoma;" parent="k55dvqI0mPFImyrSNptX-26" vertex="1">
          <mxGeometry y="108" width="240" height="62" as="geometry" />
        </mxCell>
        <mxCell id="k55dvqI0mPFImyrSNptX-34" value="MovimientoInventario" style="swimlane;fontStyle=1;align=center;verticalAlign=top;childLayout=stackLayout;horizontal=1;startSize=26;horizontalStack=0;resizeParent=1;resizeParentMax=0;resizeLast=0;collapsible=1;marginBottom=0;whiteSpace=wrap;html=1;fillColor=#d5e8d4;strokeColor=#82b366;fontFamily=Tahoma;" parent="1" vertex="1">
          <mxGeometry x="1492" y="340" width="230" height="210" as="geometry" />
        </mxCell>
        <mxCell id="k55dvqI0mPFImyrSNptX-35" value="&lt;div&gt;- id: Long&lt;/div&gt;&lt;div&gt;- fecha: LocalDateTime&lt;/div&gt;&lt;div&gt;- tipoMovimiento: TipoOperacion&lt;/div&gt;&lt;div&gt;- cantidad: Double&lt;/div&gt;&lt;div&gt;- cantidadAnterior: Double&lt;/div&gt;&lt;div&gt;- cantidadNueva: Double&lt;/div&gt;&lt;div&gt;- motivo: String&lt;/div&gt;&lt;div&gt;- referencia: String&lt;/div&gt;" style="text;strokeColor=none;fillColor=none;align=left;verticalAlign=top;spacingLeft=4;spacingRight=4;overflow=hidden;rotatable=0;points=[[0,0.5],[1,0.5]];portConstraint=eastwest;whiteSpace=wrap;html=1;fontFamily=Tahoma;" parent="k55dvqI0mPFImyrSNptX-34" vertex="1">
          <mxGeometry y="26" width="230" height="134" as="geometry" />
        </mxCell>
        <mxCell id="k55dvqI0mPFImyrSNptX-36" value="" style="line;strokeWidth=1;fillColor=none;align=left;verticalAlign=middle;spacingTop=-1;spacingLeft=3;spacingRight=3;rotatable=0;labelPosition=right;points=[];portConstraint=eastwest;strokeColor=inherit;fontFamily=Tahoma;" parent="k55dvqI0mPFImyrSNptX-34" vertex="1">
          <mxGeometry y="160" width="230" height="8" as="geometry" />
        </mxCell>
        <mxCell id="k55dvqI0mPFImyrSNptX-37" value="&lt;div&gt;+ registrarMovimiento(): void&lt;/div&gt;&lt;div&gt;+ validarMovimiento(): boolean&lt;/div&gt;" style="text;strokeColor=none;fillColor=none;align=left;verticalAlign=top;spacingLeft=4;spacingRight=4;overflow=hidden;rotatable=0;points=[[0,0.5],[1,0.5]];portConstraint=eastwest;whiteSpace=wrap;html=1;fontFamily=Tahoma;" parent="k55dvqI0mPFImyrSNptX-34" vertex="1">
          <mxGeometry y="168" width="230" height="42" as="geometry" />
        </mxCell>
        <mxCell id="rzUlyCTzi-JNFgFrHpb2-34" style="edgeStyle=orthogonalEdgeStyle;rounded=0;orthogonalLoop=1;jettySize=auto;html=1;endArrow=diamond;endFill=1;strokeWidth=2;exitX=1.002;exitY=0.581;exitDx=0;exitDy=0;exitPerimeter=0;fontFamily=Tahoma;" parent="1" source="rzUlyCTzi-JNFgFrHpb2-12" edge="1">
          <mxGeometry relative="1" as="geometry">
            <mxPoint x="2133" y="-90" as="sourcePoint" />
            <mxPoint x="1878" y="-220" as="targetPoint" />
            <Array as="points">
              <mxPoint x="1878" y="-96" />
              <mxPoint x="1878" y="-228" />
            </Array>
          </mxGeometry>
        </mxCell>
        <mxCell id="rzUlyCTzi-JNFgFrHpb2-41" value="1" style="edgeLabel;html=1;align=center;verticalAlign=middle;resizable=0;points=[];fontSize=15;fontFamily=Tahoma;" parent="rzUlyCTzi-JNFgFrHpb2-34" vertex="1" connectable="0">
          <mxGeometry x="-0.9422" relative="1" as="geometry">
            <mxPoint x="13" as="offset" />
          </mxGeometry>
        </mxCell>
        <mxCell id="rzUlyCTzi-JNFgFrHpb2-42" value="1...*" style="edgeLabel;html=1;align=center;verticalAlign=middle;resizable=0;points=[];fontSize=15;fontFamily=Tahoma;" parent="rzUlyCTzi-JNFgFrHpb2-34" vertex="1" connectable="0">
          <mxGeometry x="0.7427" y="-1" relative="1" as="geometry">
            <mxPoint as="offset" />
          </mxGeometry>
        </mxCell>
        <mxCell id="rzUlyCTzi-JNFgFrHpb2-50" style="edgeStyle=orthogonalEdgeStyle;rounded=0;orthogonalLoop=1;jettySize=auto;html=1;entryX=0.5;entryY=0;entryDx=0;entryDy=0;strokeWidth=2;fontFamily=Tahoma;startArrow=classic;startFill=1;endArrow=none;endFill=0;" parent="1" source="rzUlyCTzi-JNFgFrHpb2-11" target="k55dvqI0mPFImyrSNptX-10" edge="1">
          <mxGeometry relative="1" as="geometry" />
        </mxCell>
        <mxCell id="VPmrhG5jTdDAsUOpuQk8-17" value="1" style="edgeLabel;html=1;align=center;verticalAlign=middle;resizable=0;points=[];fontSize=15;" parent="rzUlyCTzi-JNFgFrHpb2-50" vertex="1" connectable="0">
          <mxGeometry x="0.8738" y="-1" relative="1" as="geometry">
            <mxPoint as="offset" />
          </mxGeometry>
        </mxCell>
        <mxCell id="VPmrhG5jTdDAsUOpuQk8-18" value="1..*" style="edgeLabel;html=1;align=center;verticalAlign=middle;resizable=0;points=[];fontSize=15;" parent="rzUlyCTzi-JNFgFrHpb2-50" vertex="1" connectable="0">
          <mxGeometry x="-0.8003" y="2" relative="1" as="geometry">
            <mxPoint as="offset" />
          </mxGeometry>
        </mxCell>
        <mxCell id="rzUlyCTzi-JNFgFrHpb2-11" value="Transaccion" style="swimlane;fontStyle=1;align=center;verticalAlign=top;childLayout=stackLayout;horizontal=1;startSize=26;horizontalStack=0;resizeParent=1;resizeParentMax=0;resizeLast=0;collapsible=1;marginBottom=0;whiteSpace=wrap;html=1;fillColor=#d5e8d4;strokeColor=#82b366;fontFamily=Tahoma;" parent="1" vertex="1">
          <mxGeometry x="1368" y="-200" width="230" height="260" as="geometry" />
        </mxCell>
        <mxCell id="rzUlyCTzi-JNFgFrHpb2-12" value="&lt;div&gt;- id: Long&lt;/div&gt;&lt;div&gt;- fecha: LocalDateTime&lt;/div&gt;&lt;div&gt;- pesoTotal: Double&lt;/div&gt;&lt;div&gt;- valorTotal: Double&lt;/div&gt;&lt;div&gt;- observacion: String&lt;/div&gt;&lt;div&gt;- estado: EstadoTransaccion&lt;/div&gt;&lt;div&gt;- metodoPago: MetodoPago&lt;/div&gt;&lt;div&gt;- fechaPago: LocalDateTime&lt;/div&gt;" style="text;strokeColor=none;fillColor=none;align=left;verticalAlign=top;spacingLeft=4;spacingRight=4;overflow=hidden;rotatable=0;points=[[0,0.5],[1,0.5]];portConstraint=eastwest;whiteSpace=wrap;html=1;fontFamily=Tahoma;" parent="rzUlyCTzi-JNFgFrHpb2-11" vertex="1">
          <mxGeometry y="26" width="230" height="134" as="geometry" />
        </mxCell>
        <mxCell id="rzUlyCTzi-JNFgFrHpb2-13" value="" style="line;strokeWidth=1;fillColor=none;align=left;verticalAlign=middle;spacingTop=-1;spacingLeft=3;spacingRight=3;rotatable=0;labelPosition=right;points=[];portConstraint=eastwest;strokeColor=inherit;fontFamily=Tahoma;" parent="rzUlyCTzi-JNFgFrHpb2-11" vertex="1">
          <mxGeometry y="160" width="230" height="8" as="geometry" />
        </mxCell>
        <mxCell id="rzUlyCTzi-JNFgFrHpb2-14" value="&lt;div&gt;+ calcularValorTotal(): Double&lt;/div&gt;&lt;div&gt;+ procesarPago(): void&lt;/div&gt;&lt;div&gt;+ generarFactura(): facturaDTO&lt;/div&gt;&lt;div&gt;+ anular(): void&lt;/div&gt;&lt;div&gt;+ isPAgado() boolean&lt;/div&gt;&lt;div&gt;&lt;br&gt;&lt;/div&gt;" style="text;strokeColor=none;fillColor=none;align=left;verticalAlign=top;spacingLeft=4;spacingRight=4;overflow=hidden;rotatable=0;points=[[0,0.5],[1,0.5]];portConstraint=eastwest;whiteSpace=wrap;html=1;fontFamily=Tahoma;" parent="rzUlyCTzi-JNFgFrHpb2-11" vertex="1">
          <mxGeometry y="168" width="230" height="92" as="geometry" />
        </mxCell>
        <mxCell id="rzUlyCTzi-JNFgFrHpb2-19" value="DetalleTransaccion" style="swimlane;fontStyle=1;align=center;verticalAlign=top;childLayout=stackLayout;horizontal=1;startSize=26;horizontalStack=0;resizeParent=1;resizeParentMax=0;resizeLast=0;collapsible=1;marginBottom=0;whiteSpace=wrap;html=1;fillColor=#d5e8d4;strokeColor=#82b366;fontFamily=Tahoma;" parent="1" vertex="1">
          <mxGeometry x="1788" y="-420" width="180" height="190" as="geometry" />
        </mxCell>
        <mxCell id="rzUlyCTzi-JNFgFrHpb2-20" value="&lt;div&gt;- id: Long&lt;/div&gt;&lt;div&gt;- cantidad: Double&lt;br&gt;&lt;/div&gt;&lt;div&gt;- peso: Double&lt;/div&gt;&lt;div&gt;- precioUnitario: Double&lt;/div&gt;&lt;div&gt;- subtotal: Double&lt;/div&gt;&lt;div&gt;- calidad: CalidadMaterial&lt;/div&gt;&lt;div&gt;- observaciones: String&lt;/div&gt;" style="text;strokeColor=none;fillColor=none;align=left;verticalAlign=top;spacingLeft=4;spacingRight=4;overflow=hidden;rotatable=0;points=[[0,0.5],[1,0.5]];portConstraint=eastwest;whiteSpace=wrap;html=1;fontFamily=Tahoma;" parent="rzUlyCTzi-JNFgFrHpb2-19" vertex="1">
          <mxGeometry y="26" width="180" height="114" as="geometry" />
        </mxCell>
        <mxCell id="rzUlyCTzi-JNFgFrHpb2-21" value="" style="line;strokeWidth=1;fillColor=none;align=left;verticalAlign=middle;spacingTop=-1;spacingLeft=3;spacingRight=3;rotatable=0;labelPosition=right;points=[];portConstraint=eastwest;strokeColor=inherit;fontFamily=Tahoma;" parent="rzUlyCTzi-JNFgFrHpb2-19" vertex="1">
          <mxGeometry y="140" width="180" height="8" as="geometry" />
        </mxCell>
        <mxCell id="rzUlyCTzi-JNFgFrHpb2-22" value="&lt;div&gt;+ calcularSubtotal(): Double&lt;/div&gt;&lt;div&gt;+ validarDatps(): boolean&lt;/div&gt;&lt;div&gt;&lt;br&gt;&lt;/div&gt;" style="text;strokeColor=none;fillColor=none;align=left;verticalAlign=top;spacingLeft=4;spacingRight=4;overflow=hidden;rotatable=0;points=[[0,0.5],[1,0.5]];portConstraint=eastwest;whiteSpace=wrap;html=1;fontFamily=Tahoma;" parent="rzUlyCTzi-JNFgFrHpb2-19" vertex="1">
          <mxGeometry y="148" width="180" height="42" as="geometry" />
        </mxCell>
        <mxCell id="rzUlyCTzi-JNFgFrHpb2-35" style="edgeStyle=orthogonalEdgeStyle;rounded=0;orthogonalLoop=1;jettySize=auto;html=1;entryX=0.5;entryY=0;entryDx=0;entryDy=0;strokeWidth=2;endArrow=diamond;endFill=1;exitX=0.446;exitY=1.013;exitDx=0;exitDy=0;exitPerimeter=0;fontFamily=Tahoma;" parent="1" source="rzUlyCTzi-JNFgFrHpb2-26" target="k55dvqI0mPFImyrSNptX-18" edge="1">
          <mxGeometry relative="1" as="geometry">
            <mxPoint x="1722" y="55" as="sourcePoint" />
            <Array as="points">
              <mxPoint x="1258" y="330" />
              <mxPoint x="1258" y="330" />
            </Array>
          </mxGeometry>
        </mxCell>
        <mxCell id="VPmrhG5jTdDAsUOpuQk8-20" value="1" style="edgeLabel;html=1;align=center;verticalAlign=middle;resizable=0;points=[];fontSize=15;" parent="rzUlyCTzi-JNFgFrHpb2-35" vertex="1" connectable="0">
          <mxGeometry x="0.7243" y="1" relative="1" as="geometry">
            <mxPoint as="offset" />
          </mxGeometry>
        </mxCell>
        <mxCell id="VPmrhG5jTdDAsUOpuQk8-21" value="1" style="edgeLabel;html=1;align=center;verticalAlign=middle;resizable=0;points=[];fontSize=15;" parent="rzUlyCTzi-JNFgFrHpb2-35" vertex="1" connectable="0">
          <mxGeometry x="-0.869" y="1" relative="1" as="geometry">
            <mxPoint as="offset" />
          </mxGeometry>
        </mxCell>
        <mxCell id="rzUlyCTzi-JNFgFrHpb2-37" style="edgeStyle=orthogonalEdgeStyle;rounded=0;orthogonalLoop=1;jettySize=auto;html=1;entryX=0.5;entryY=0;entryDx=0;entryDy=0;strokeWidth=2;endArrow=diamond;endFill=1;exitX=0.999;exitY=0.081;exitDx=0;exitDy=0;exitPerimeter=0;fontFamily=Tahoma;" parent="1" source="rzUlyCTzi-JNFgFrHpb2-23" target="k55dvqI0mPFImyrSNptX-34" edge="1">
          <mxGeometry relative="1" as="geometry">
            <Array as="points">
              <mxPoint x="1607" y="155" />
            </Array>
          </mxGeometry>
        </mxCell>
        <mxCell id="rzUlyCTzi-JNFgFrHpb2-39" value="1" style="edgeLabel;html=1;align=center;verticalAlign=middle;resizable=0;points=[];fontSize=15;fontFamily=Tahoma;" parent="rzUlyCTzi-JNFgFrHpb2-37" vertex="1" connectable="0">
          <mxGeometry x="-0.7681" relative="1" as="geometry">
            <mxPoint as="offset" />
          </mxGeometry>
        </mxCell>
        <mxCell id="rzUlyCTzi-JNFgFrHpb2-40" value="0...*" style="edgeLabel;html=1;align=center;verticalAlign=middle;resizable=0;points=[];fontSize=15;fontFamily=Tahoma;" parent="rzUlyCTzi-JNFgFrHpb2-37" vertex="1" connectable="0">
          <mxGeometry x="0.8594" y="-1" relative="1" as="geometry">
            <mxPoint as="offset" />
          </mxGeometry>
        </mxCell>
        <mxCell id="rzUlyCTzi-JNFgFrHpb2-23" value="Inventario" style="swimlane;fontStyle=1;align=center;verticalAlign=top;childLayout=stackLayout;horizontal=1;startSize=26;horizontalStack=0;resizeParent=1;resizeParentMax=0;resizeLast=0;collapsible=1;marginBottom=0;whiteSpace=wrap;html=1;fillColor=#d5e8d4;strokeColor=#82b366;fontFamily=Tahoma;" parent="1" vertex="1">
          <mxGeometry x="1088" y="140" width="380" height="180" as="geometry" />
        </mxCell>
        <mxCell id="rzUlyCTzi-JNFgFrHpb2-24" value="&lt;div&gt;- id: Long&lt;/div&gt;&lt;div&gt;- stockActual: Double&lt;/div&gt;&lt;div&gt;- stockMinimo: Double&lt;/div&gt;&lt;div&gt;- StockMaximo: Double&lt;/div&gt;&lt;div&gt;- fechaUltimaActualizacion: LocalDateTime&lt;/div&gt;" style="text;strokeColor=none;fillColor=none;align=left;verticalAlign=top;spacingLeft=4;spacingRight=4;overflow=hidden;rotatable=0;points=[[0,0.5],[1,0.5]];portConstraint=eastwest;whiteSpace=wrap;html=1;fontFamily=Tahoma;" parent="rzUlyCTzi-JNFgFrHpb2-23" vertex="1">
          <mxGeometry y="26" width="380" height="84" as="geometry" />
        </mxCell>
        <mxCell id="rzUlyCTzi-JNFgFrHpb2-25" value="" style="line;strokeWidth=1;fillColor=none;align=left;verticalAlign=middle;spacingTop=-1;spacingLeft=3;spacingRight=3;rotatable=0;labelPosition=right;points=[];portConstraint=eastwest;strokeColor=inherit;fontFamily=Tahoma;" parent="rzUlyCTzi-JNFgFrHpb2-23" vertex="1">
          <mxGeometry y="110" width="380" height="8" as="geometry" />
        </mxCell>
        <mxCell id="rzUlyCTzi-JNFgFrHpb2-26" value="&lt;div&gt;+ actualizarStock(cantidad: Double, operacion: TipoOperacion): void&lt;/div&gt;&lt;div&gt;+ validarStockDisponible(cantidad: Double): boolean&lt;/div&gt;&lt;div&gt;+ generarAlertStock(): void&lt;/div&gt;&lt;div&gt;&lt;br&gt;&lt;/div&gt;&lt;div&gt;&lt;br&gt;&lt;/div&gt;" style="text;strokeColor=none;fillColor=none;align=left;verticalAlign=top;spacingLeft=4;spacingRight=4;overflow=hidden;rotatable=0;points=[[0,0.5],[1,0.5]];portConstraint=eastwest;whiteSpace=wrap;html=1;fontFamily=Tahoma;" parent="rzUlyCTzi-JNFgFrHpb2-23" vertex="1">
          <mxGeometry y="118" width="380" height="62" as="geometry" />
        </mxCell>
        <mxCell id="rzUlyCTzi-JNFgFrHpb2-30" style="edgeStyle=orthogonalEdgeStyle;rounded=0;orthogonalLoop=1;jettySize=auto;html=1;entryX=-0.015;entryY=0.813;entryDx=0;entryDy=0;entryPerimeter=0;startArrow=classic;startFill=1;strokeWidth=2;fontFamily=Tahoma;" parent="1" source="k55dvqI0mPFImyrSNptX-2" target="k55dvqI0mPFImyrSNptX-27" edge="1">
          <mxGeometry relative="1" as="geometry" />
        </mxCell>
        <mxCell id="VPmrhG5jTdDAsUOpuQk8-15" value="1" style="edgeLabel;html=1;align=center;verticalAlign=middle;resizable=0;points=[];fontSize=15;" parent="rzUlyCTzi-JNFgFrHpb2-30" vertex="1" connectable="0">
          <mxGeometry x="-0.6779" y="1" relative="1" as="geometry">
            <mxPoint as="offset" />
          </mxGeometry>
        </mxCell>
        <mxCell id="VPmrhG5jTdDAsUOpuQk8-16" value="1..*" style="edgeLabel;html=1;align=center;verticalAlign=middle;resizable=0;points=[];fontSize=15;" parent="rzUlyCTzi-JNFgFrHpb2-30" vertex="1" connectable="0">
          <mxGeometry x="0.6513" y="2" relative="1" as="geometry">
            <mxPoint as="offset" />
          </mxGeometry>
        </mxCell>
        <mxCell id="rzUlyCTzi-JNFgFrHpb2-31" style="edgeStyle=orthogonalEdgeStyle;rounded=0;orthogonalLoop=1;jettySize=auto;html=1;endArrow=diamond;endFill=0;strokeWidth=2;entryX=0.5;entryY=0;entryDx=0;entryDy=0;fontFamily=Tahoma;" parent="1" source="k55dvqI0mPFImyrSNptX-6" target="rzUlyCTzi-JNFgFrHpb2-23" edge="1">
          <mxGeometry relative="1" as="geometry">
            <mxPoint x="1468" y="256" as="targetPoint" />
            <Array as="points">
              <mxPoint x="1278" y="-30" />
            </Array>
          </mxGeometry>
        </mxCell>
        <mxCell id="rzUlyCTzi-JNFgFrHpb2-43" value="1" style="edgeLabel;html=1;align=center;verticalAlign=middle;resizable=0;points=[];fontSize=15;fontFamily=Tahoma;" parent="rzUlyCTzi-JNFgFrHpb2-31" vertex="1" connectable="0">
          <mxGeometry x="-0.9181" y="1" relative="1" as="geometry">
            <mxPoint as="offset" />
          </mxGeometry>
        </mxCell>
        <mxCell id="rzUlyCTzi-JNFgFrHpb2-44" value="0..*" style="edgeLabel;html=1;align=center;verticalAlign=middle;resizable=0;points=[];fontSize=15;fontFamily=Tahoma;" parent="rzUlyCTzi-JNFgFrHpb2-31" vertex="1" connectable="0">
          <mxGeometry x="0.8461" relative="1" as="geometry">
            <mxPoint as="offset" />
          </mxGeometry>
        </mxCell>
        <mxCell id="rzUlyCTzi-JNFgFrHpb2-32" style="edgeStyle=orthogonalEdgeStyle;rounded=0;orthogonalLoop=1;jettySize=auto;html=1;entryX=-0.014;entryY=0.112;entryDx=0;entryDy=0;entryPerimeter=0;endArrow=diamond;endFill=0;strokeWidth=2;fontFamily=Tahoma;" parent="1" source="k55dvqI0mPFImyrSNptX-26" target="k55dvqI0mPFImyrSNptX-22" edge="1">
          <mxGeometry relative="1" as="geometry">
            <Array as="points">
              <mxPoint x="1130" y="-380" />
              <mxPoint x="1130" y="-414" />
            </Array>
          </mxGeometry>
        </mxCell>
        <mxCell id="VPmrhG5jTdDAsUOpuQk8-10" value="1" style="edgeLabel;html=1;align=center;verticalAlign=middle;resizable=0;points=[];fontSize=15;" parent="rzUlyCTzi-JNFgFrHpb2-32" vertex="1" connectable="0">
          <mxGeometry x="-0.7844" y="1" relative="1" as="geometry">
            <mxPoint as="offset" />
          </mxGeometry>
        </mxCell>
        <mxCell id="VPmrhG5jTdDAsUOpuQk8-11" value="1..*" style="edgeLabel;html=1;align=center;verticalAlign=middle;resizable=0;points=[];fontSize=15;" parent="rzUlyCTzi-JNFgFrHpb2-32" vertex="1" connectable="0">
          <mxGeometry x="0.4902" y="2" relative="1" as="geometry">
            <mxPoint as="offset" />
          </mxGeometry>
        </mxCell>
        <mxCell id="rzUlyCTzi-JNFgFrHpb2-33" style="edgeStyle=orthogonalEdgeStyle;rounded=0;orthogonalLoop=1;jettySize=auto;html=1;entryX=0.5;entryY=0;entryDx=0;entryDy=0;endArrow=diamond;endFill=0;strokeWidth=2;fontFamily=Tahoma;" parent="1" source="k55dvqI0mPFImyrSNptX-7" target="rzUlyCTzi-JNFgFrHpb2-11" edge="1">
          <mxGeometry relative="1" as="geometry" />
        </mxCell>
        <mxCell id="rzUlyCTzi-JNFgFrHpb2-51" style="edgeStyle=orthogonalEdgeStyle;rounded=0;orthogonalLoop=1;jettySize=auto;html=1;strokeWidth=2;exitX=1;exitY=0.5;exitDx=0;exitDy=0;entryX=0.2;entryY=-0.006;entryDx=0;entryDy=0;entryPerimeter=0;fontFamily=Tahoma;" parent="1" source="k55dvqI0mPFImyrSNptX-5" target="k55dvqI0mPFImyrSNptX-6" edge="1">
          <mxGeometry relative="1" as="geometry">
            <mxPoint x="908" y="-180" as="targetPoint" />
            <Array as="points">
              <mxPoint x="788" y="-321" />
              <mxPoint x="788" y="-240" />
              <mxPoint x="888" y="-240" />
            </Array>
          </mxGeometry>
        </mxCell>
        <mxCell id="rzUlyCTzi-JNFgFrHpb2-85" value="&lt;font style=&quot;font-size: 50px;&quot; face=&quot;Tahoma&quot;&gt;SICOFAR-K - Diagrama de Clases v1.0&amp;nbsp;&amp;nbsp;&lt;/font&gt;&lt;div&gt;&lt;font style=&quot;font-size: 50px;&quot; face=&quot;Tahoma&quot;&gt;&amp;nbsp;Responsable: Equipo de Desarrollo&lt;/font&gt;&lt;/div&gt;" style="text;html=1;align=center;verticalAlign=middle;resizable=0;points=[];autosize=1;strokeColor=none;fillColor=none;fontSize=25;" parent="1" vertex="1">
          <mxGeometry x="855" y="-795" width="890" height="130" as="geometry" />
        </mxCell>
      </root>
    </mxGraphModel>
  </diagram>
</mxfile>
